<svg width="92" height="92" viewBox="0 0 92 92" fill="none" xmlns="http://www.w3.org/2000/svg">
<g clip-path="url(#clip0_1662_1919)">
<path fill-rule="evenodd" clip-rule="evenodd" d="M22.7158 78.2654L22.7158 -9.19141L23.7158 -9.19141L23.7158 78.2654L22.7158 78.2654Z" fill="#D3C2A5"/>
<path fill-rule="evenodd" clip-rule="evenodd" d="M136.296 78.2656H22.7158V77.2656H136.296V78.2656Z" fill="#D3C2A5"/>
<path fill-rule="evenodd" clip-rule="evenodd" d="M-1.16657 92.2119L22.9816 77.6284L23.4985 78.4844L-0.649611 93.0679L-1.16657 92.2119Z" fill="#D3C2A5"/>
<path d="M50.0601 25.4402C50.9601 25.5002 52.1001 25.8602 53.2401 26.2202C53.4201 26.4002 54.5001 27.0602 56.4801 29.2202C57.1401 30.0002 58.7601 31.3202 59.4801 32.6402C60.0801 33.9002 60.6201 35.2802 60.8001 36.4802C61.1001 38.2202 61.4001 40.5602 61.6401 42.7202C61.8801 44.8202 61.6401 46.8002 61.6401 48.3002C61.6401 49.4402 61.5201 50.3402 61.4001 50.9402C61.5201 51.3602 61.6401 51.8402 61.6401 52.2602C61.7001 53.5802 60.2601 56.1002 60.2001 56.8202C60.1401 57.5402 58.7601 61.5002 58.7601 61.5002C58.7601 61.5002 55.2801 63.9602 54.6201 65.1002C54.0201 66.1202 50.7801 66.7202 50.1201 66.9002C49.5801 67.0802 45.2601 67.1402 44.5401 66.8402C43.9401 66.5402 40.9401 66.5402 40.3401 65.4002C39.8001 64.3202 36.9801 63.6602 36.0801 62.3402C35.1201 61.0202 34.4601 58.6202 33.4401 58.2602C32.4801 57.9602 31.9401 52.3202 31.9401 52.3202C31.9401 52.3202 31.6401 50.2802 31.2801 48.6002C31.0401 46.8602 31.5201 43.3202 31.5201 43.3202C31.5201 43.3202 31.8801 40.5602 32.1201 38.9402C32.3001 37.2602 32.8401 37.1402 33.0801 35.7602C33.4401 34.3202 33.7401 34.2602 34.0401 33.4202C34.3401 32.4002 34.6401 32.1602 35.5401 31.1402C36.4401 30.0602 37.4601 28.9202 37.4601 28.9202C37.4601 28.9202 38.1201 27.8402 38.4801 27.0602C39.0801 26.2802 40.5201 26.3402 41.5401 25.9802C42.5601 25.5002 43.4001 25.2602 43.7001 25.0202C44.0001 24.9002 45.2601 24.6602 45.9201 24.6602C46.7601 24.6602 48.2001 25.0202 48.2001 25.0202C48.2001 25.0202 49.2801 25.3802 50.0601 25.4402ZM55.4001 53.2802L56.0001 49.5002C56.7801 47.5202 56.4201 44.3402 56.1801 43.0802L55.5201 39.7202L54.8001 36.4802C54.3801 34.3802 53.4801 32.9402 53.1801 32.8202C52.2201 32.3402 50.6601 30.7202 50.0601 30.7202C49.6401 30.6602 49.3401 30.1802 48.9201 29.7002C48.5601 29.2802 48.0801 29.2802 47.5401 28.9202C46.9401 28.5002 45.5001 29.9402 44.5401 30.3602C43.2201 30.8402 41.6001 32.1002 40.7001 33.3602C39.7401 34.6802 39.6801 36.0602 39.3801 36.7802C38.8401 38.1002 37.7601 38.6402 37.7001 40.0802C37.6401 41.4002 37.4001 43.6202 37.4001 43.6202C37.1001 43.9202 37.2801 45.8402 36.9801 46.3802C36.0201 48.0602 37.2201 51.1202 37.4601 51.4202C38.1201 52.3202 38.8401 55.8002 39.2001 57.0002C39.6201 58.2002 40.3401 59.4002 42.6201 60.9002C44.9001 62.3402 46.2801 62.4602 47.4801 62.4002L49.8201 61.9802C51.4401 61.7402 51.8001 61.1402 52.6401 59.8802C53.3601 58.6802 54.8001 57.8402 54.9201 56.7602C55.0401 55.7402 55.0401 54.5402 55.4001 53.2802Z" fill="#C0AA87"/>
</g>
<rect x="0.5" y="0.5" width="91" height="91" stroke="#D3C2A5"/>
<defs>
<clipPath id="clip0_1662_1919">
<rect width="92" height="92" fill="white"/>
</clipPath>
</defs>
</svg>
