<svg width="92" height="92" viewBox="0 0 92 92" fill="none" xmlns="http://www.w3.org/2000/svg">
<g clip-path="url(#clip0_1662_1914)">
<path fill-rule="evenodd" clip-rule="evenodd" d="M22.7158 78.2654L22.7158 -9.19141L23.7158 -9.19141L23.7158 78.2654L22.7158 78.2654Z" fill="#D3C2A5"/>
<path fill-rule="evenodd" clip-rule="evenodd" d="M136.296 78.2656H22.7158V77.2656H136.296V78.2656Z" fill="#D3C2A5"/>
<path fill-rule="evenodd" clip-rule="evenodd" d="M-1.16657 92.2119L22.9816 77.6284L23.4985 78.4844L-0.649611 93.0679L-1.16657 92.2119Z" fill="#D3C2A5"/>
<path d="M33.2002 53.8204C31.2802 54.4804 29.9602 52.5004 29.8402 51.3004C29.7202 49.9204 30.5602 49.2004 31.1602 48.3004L35.0602 43.5604C35.8402 42.5404 38.6602 40.2004 39.1402 39.0004C39.5602 37.9204 40.9402 37.5004 41.2402 36.2404C41.3002 36.0604 44.2402 31.9204 44.4202 31.7404L45.3202 30.9004C45.5002 30.7204 45.8002 30.0604 46.6402 28.9804C47.3002 27.9604 47.5402 27.4204 48.0802 27.1204C49.1602 26.5204 48.3802 25.5004 50.1202 24.9604C51.4402 24.4804 52.1002 24.1204 52.7002 24.9004C52.7602 24.9604 52.8202 25.0804 52.8202 25.2004C53.0602 25.9804 53.6002 26.5204 53.4802 26.7604C53.1802 27.1804 53.6002 28.3804 53.6002 29.0404C53.6002 29.7004 53.8402 32.1604 54.0202 35.0404C54.0802 36.3604 53.7202 38.2204 53.6602 38.7004C53.6602 38.8804 54.1402 41.6404 53.9002 44.4004C53.7802 45.6604 54.1402 46.9204 53.9602 47.9404C53.9002 48.1804 53.8402 48.7204 53.8402 49.3804C55.5802 49.3804 55.5802 49.6804 57.0802 49.7404C57.8002 49.7404 58.6402 49.4404 59.2402 49.3204C60.2602 48.9604 60.9802 48.5404 61.5802 49.2004C62.2402 49.4404 62.2402 50.1604 62.2402 51.1804C62.2402 52.8004 61.1602 53.9404 60.5602 54.2404C60.0202 54.5404 59.0602 53.8204 58.1602 53.7604C56.7802 53.5804 56.7202 53.7604 54.8602 53.7004L53.3602 53.7604C53.3602 54.1804 53.4202 54.5404 53.4202 54.6604L53.3602 55.0804C53.3602 55.2004 53.4202 55.3204 53.4202 55.4404L53.5402 56.6404C53.6002 56.8804 53.1202 57.7804 53.0602 58.3204C53.0602 58.6804 53.6002 61.3804 53.5402 61.8004C53.2402 63.2404 56.0002 61.7404 56.3602 62.4604C56.7202 63.2404 56.6602 63.1204 56.6602 64.2004C56.6602 65.2804 55.8802 66.0004 55.3402 66.1204C53.3002 66.4804 52.7002 66.4204 51.0202 66.2404C50.4802 66.1804 49.3402 66.3604 48.6202 66.4204C47.6602 66.4804 46.7002 66.3004 46.3402 66.1204C45.6802 65.8204 45.3802 66.4804 45.5002 65.2804C45.5602 64.8604 45.5002 64.0204 45.8002 63.5404C46.3402 62.8204 47.0002 62.4004 47.4202 62.1604C48.1402 61.4404 48.3202 60.1804 48.2002 58.6204C48.3802 57.0004 48.4402 54.6604 48.2602 54.0004C48.0802 53.5804 46.8202 53.5204 45.6802 53.9404C44.0002 53.8804 36.7402 53.7604 36.3802 53.8204C35.4802 54.1204 33.9802 53.5804 33.2002 53.8204ZM49.1602 35.2204C48.9802 34.5004 49.6402 33.3004 48.8602 33.2404L48.4402 33.7204C47.6602 34.9204 45.8602 37.3804 44.5402 38.7004C43.1002 40.1404 39.8602 44.2804 39.6202 44.6404C38.9002 45.5404 36.3202 48.2404 36.5002 49.0204C36.5602 49.2604 37.2802 49.5004 38.3002 49.5604C40.3402 49.6204 45.7402 49.3204 46.7602 49.3204C48.2602 49.4404 48.9202 48.8404 48.7402 47.4004C48.8602 46.6204 48.9802 44.4604 49.2202 42.1204C49.5202 39.2404 49.3402 36.1204 49.1602 35.2204Z" fill="#C0AA87"/>
</g>
<rect x="0.5" y="0.5" width="91" height="91" stroke="#D3C2A5"/>
<defs>
<clipPath id="clip0_1662_1914">
<rect width="92" height="92" fill="white"/>
</clipPath>
</defs>
</svg>
