<svg width="18" height="20" viewBox="0 0 18 20" fill="none" xmlns="http://www.w3.org/2000/svg">
<path d="M17.5133 14.6625C16.978 13.7348 16.1747 11.1314 16.1747 7.75C16.1747 5.84707 15.4188 4.02208 14.0732 2.67651C12.7276 1.33094 10.9026 0.575 8.99969 0.575C7.09676 0.575 5.27178 1.33094 3.9262 2.67651C2.58063 4.02208 1.82469 5.84707 1.82469 7.75C1.82469 11.1313 1.02045 13.7346 0.485246 14.6576C0.381041 14.8361 0.325769 15.039 0.325008 15.2457C0.324247 15.4524 0.37803 15.6556 0.480928 15.8349C0.583826 16.0142 0.732198 16.1631 0.911067 16.2667C1.08994 16.3704 1.29297 16.4249 1.49968 16.425H5.60191C5.70576 17.244 6.10206 17.9985 6.71861 18.549C7.34627 19.1094 8.15826 19.4191 8.99969 19.4191C9.84113 19.4191 10.6531 19.1094 11.2808 18.549C11.8973 17.9985 12.2936 17.244 12.3975 16.425H16.4997L16.4999 16.425C16.7058 16.4243 16.9079 16.3695 17.0859 16.266C17.264 16.1626 17.4117 16.0142 17.5143 15.8357C17.617 15.6572 17.6709 15.4549 17.6707 15.249C17.6705 15.0431 17.6163 14.8408 17.5133 14.6625ZM17.5133 14.6625L17.47 14.6875L17.5133 14.6625C17.5133 14.6625 17.5133 14.6625 17.5133 14.6625ZM16.7798 15.4126L16.7795 15.4131C16.7518 15.4625 16.7114 15.5036 16.6624 15.5321C16.6134 15.5606 16.5577 15.5754 16.501 15.575H16.5006L1.49969 15.575L1.49933 15.575C1.44267 15.5754 1.38693 15.5606 1.33794 15.5321C1.28895 15.5036 1.2485 15.4625 1.22083 15.4131L1.22049 15.4125C1.19197 15.3631 1.17695 15.307 1.17695 15.25C1.17695 15.1929 1.19197 15.1369 1.22049 15.0875C1.92393 13.8744 2.67469 11.0663 2.67469 7.75C2.67469 6.07251 3.34107 4.46372 4.52724 3.27755C5.71341 2.09138 7.3222 1.425 8.99969 1.425C10.6772 1.425 12.286 2.09138 13.4721 3.27755C14.6583 4.46372 15.3247 6.07251 15.3247 7.75C15.3247 11.0655 16.0755 13.8745 16.7789 15.0876L16.779 15.0876C16.8076 15.1369 16.8228 15.1929 16.8229 15.25C16.823 15.307 16.8082 15.3631 16.7798 15.4126ZM8.9997 18.575C8.38054 18.5749 7.78214 18.3518 7.31413 17.9464C6.8607 17.5537 6.55907 17.0154 6.46027 16.425H11.5391C11.4403 17.0154 11.1387 17.5537 10.6853 17.9464C10.2172 18.3518 9.61884 18.5749 8.9997 18.575Z" fill="#222222" stroke="#222222" stroke-width="0.1" stroke-linejoin="round"/>
</svg>
