<svg width="22" height="22" viewBox="0 0 22 22" fill="none" xmlns="http://www.w3.org/2000/svg">
<path fill-rule="evenodd" clip-rule="evenodd" d="M21.999 11.2497C21.999 10.4694 21.9271 9.72021 21.7949 9H11.2243V13.2549H17.2651C17.005 14.6301 16.2141 15.7948 15.0255 16.5751V19.3347H18.6534C20.7756 17.4197 22.0001 14.6 22.0001 11.2497H21.999Z" fill="#3E82F1"/>
<path fill-rule="evenodd" clip-rule="evenodd" d="M11.2241 21.9999C14.2546 21.9999 16.7955 21.0144 18.6522 19.3347L15.0243 16.5751C14.0188 17.2352 12.7341 17.6248 11.2231 17.6248C8.29938 17.6248 5.8251 15.6901 4.94218 13.0901H1.19376V15.9398C3.04101 19.5347 6.83596 21.9999 11.2241 21.9999Z" fill="#32A753"/>
<path fill-rule="evenodd" clip-rule="evenodd" d="M4.94327 13.0902C4.71911 12.4301 4.59116 11.7254 4.59116 11C4.59116 10.2746 4.71911 9.56997 4.94327 8.90986V6.06012H1.19379C0.433528 7.54509 0 9.22489 0 11C0 12.7752 0.433528 14.4549 1.19379 15.9399L4.94327 13.0902Z" fill="#F9BB00"/>
<path fill-rule="evenodd" clip-rule="evenodd" d="M11.2241 4.37513C12.8715 4.37513 14.3519 4.93057 15.515 6.01969L18.7347 2.86425C16.7902 1.09016 14.2493 0 11.2241 0C6.83596 0 3.04101 2.46529 1.19376 6.06011L4.94324 8.90985C5.82616 6.30985 8.30044 4.37513 11.2241 4.37513Z" fill="#E74133"/>
</svg>
