<svg width="21" height="17" viewBox="0 0 21 17" fill="none" xmlns="http://www.w3.org/2000/svg">
<path d="M2.48047 16.5012C1.93047 16.5012 1.45964 16.3054 1.06797 15.9137C0.676302 15.5221 0.480469 15.0512 0.480469 14.5012V2.50122C0.480469 1.95122 0.676302 1.48039 1.06797 1.08872C1.45964 0.697054 1.93047 0.501221 2.48047 0.501221H18.4805C19.0305 0.501221 19.5013 0.697054 19.893 1.08872C20.2846 1.48039 20.4805 1.95122 20.4805 2.50122V14.5012C20.4805 15.0512 20.2846 15.5221 19.893 15.9137C19.5013 16.3054 19.0305 16.5012 18.4805 16.5012H2.48047ZM10.4805 9.32622C10.5638 9.32622 10.6513 9.31372 10.743 9.28872C10.8346 9.26372 10.9221 9.22622 11.0055 9.17622L18.0805 4.75122C18.2138 4.66789 18.3138 4.56372 18.3805 4.43872C18.4471 4.31372 18.4805 4.17622 18.4805 4.02622C18.4805 3.69289 18.3388 3.44289 18.0555 3.27622C17.7721 3.10955 17.4805 3.11789 17.1805 3.30122L10.4805 7.50122L3.78047 3.30122C3.48047 3.11789 3.1888 3.11372 2.90547 3.28872C2.62213 3.46372 2.48047 3.70955 2.48047 4.02622C2.48047 4.19289 2.5138 4.33872 2.58047 4.46372C2.64714 4.58872 2.74714 4.68455 2.88047 4.75122L9.95547 9.17622C10.0388 9.22622 10.1263 9.26372 10.218 9.28872C10.3096 9.31372 10.3971 9.32622 10.4805 9.32622Z" fill="#2B6A1B"/>
</svg>
