<svg width="27" height="25" viewBox="0 0 27 25" fill="none" xmlns="http://www.w3.org/2000/svg">
<path fill-rule="evenodd" clip-rule="evenodd" d="M2.94538 1.29104C2.94538 0.576036 3.53087 0.000198364 4.24841 0.000198364H22.7242C23.4417 0.000198364 24.0272 0.576036 24.0272 1.29104V5.10897C24.0272 5.82397 23.4417 6.39981 22.7242 6.39981C22.0066 6.39981 21.4211 5.82397 21.4211 5.10897V2.58187H4.24841C3.53087 2.58187 2.94538 2.00604 2.94538 1.29104ZM-4.95911e-05 8.60272C-4.95911e-05 7.84788 0.559878 7.20235 1.2901 7.20235H25.1098C25.84 7.20235 26.4 7.84788 26.4 8.60272C26.4 9.35756 25.84 10.0031 25.1098 10.0031H1.2901C0.559878 10.0031 -4.95911e-05 9.35756 -4.95911e-05 8.60272ZM4.24841 11.4011C3.52758 11.4011 2.94538 11.9888 2.94538 12.7111C2.94538 13.4335 3.52758 14.0212 4.24841 14.0212H21.4211V16.2298H4.24841C3.52758 16.2298 2.94538 16.8176 2.94538 17.5399V23.0902C2.94538 23.8125 3.52758 24.4003 4.24841 24.4003H22.7242C23.445 24.4003 24.0272 23.8125 24.0272 23.0902C24.0272 22.3679 23.445 21.7801 22.7242 21.7801H5.55145V18.85H22.7242C23.445 18.85 24.0272 18.2622 24.0272 17.5399V12.7111C24.0272 11.9888 23.445 11.4011 22.7242 11.4011H4.24841Z" fill="#222222"/>
</svg>
