<svg width="27" height="23" viewBox="0 0 27 23" fill="none" xmlns="http://www.w3.org/2000/svg">
<path fill-rule="evenodd" clip-rule="evenodd" d="M8.96573 9.15527e-05C5.538 9.15527e-05 2.7458 2.67426 2.7458 5.98931C2.7458 9.30436 5.538 11.9785 8.96573 11.9785C12.3935 11.9785 15.1856 9.30436 15.1856 5.98931C15.1856 2.67426 12.3935 9.15527e-05 8.96573 9.15527e-05ZM5.29578 5.98931C5.29578 4.05166 6.93143 2.46767 8.96573 2.46767C11 2.46767 12.6357 4.05166 12.6357 5.98931C12.6357 7.92697 11 9.51095 8.96573 9.51095C6.93143 9.51095 5.29578 7.92697 5.29578 5.98931ZM22.4645 0.58017C21.7665 0.58017 21.2153 1.16851 21.2153 1.87583V21.1046C21.2153 21.8119 21.7665 22.4003 22.4645 22.4003C23.1625 22.4003 23.7137 21.8119 23.7137 21.1046V3.17149H25.1507C25.8487 3.17149 26.3999 2.58315 26.3999 1.87583C26.3999 1.16851 25.8487 0.58017 25.1507 0.58017H22.4645ZM9.24907 15.0523C8.57593 15.0523 8.02412 15.5893 8.02412 16.2592V21.1926C8.02412 21.8624 8.57593 22.3994 9.24907 22.3994H16.3724C17.0455 22.3994 17.5973 21.8624 17.5973 21.1926C17.5973 20.5227 17.0455 19.9858 16.3724 19.9858H10.474V16.2592C10.474 15.5893 9.9222 15.0523 9.24907 15.0523ZM1.30414 20.2623C0.631209 20.2623 -4.57764e-05 20.6987 -4.57764e-05 21.331C-4.57764e-05 21.9633 0.631209 22.3997 1.30414 22.3997H6.54901C7.22194 22.3997 7.85319 21.9633 7.85319 21.331C7.85319 20.6987 7.22194 20.2623 6.54901 20.2623H1.30414Z" fill="#222222"/>
</svg>
