<svg width="146" height="44" viewBox="0 0 146 44" fill="none" xmlns="http://www.w3.org/2000/svg">
<path d="M18.2185 0.124756C17.4925 0.124756 16.8666 0.629913 16.7205 1.33374C14.9534 9.84548 10.9746 15.5021 7.46414 19.0271C5.70536 20.7931 4.0611 22.0267 2.8673 22.8135C2.27073 23.2067 1.78784 23.4875 1.46107 23.6668C1.29773 23.7565 1.17356 23.8206 1.09388 23.8607C1.05405 23.8807 1.02535 23.8947 1.00846 23.9029L0.990741 23.9113C0.227674 24.266 -0.101712 25.1653 0.255068 25.9217C0.612342 26.6792 1.52239 27.0066 2.28772 26.653L1.64082 25.2814C2.28772 26.653 2.2903 26.6518 2.2911 26.6514L2.29566 26.6493L2.3083 26.6433L2.34745 26.6247C2.37963 26.6092 2.42386 26.5875 2.47946 26.5595C2.59064 26.5036 2.74736 26.4224 2.94413 26.3144C3.33756 26.0985 3.89174 25.7754 4.56258 25.3332C5.90361 24.4494 7.71559 23.087 9.64244 21.1522C13.331 17.4484 17.4297 11.6561 19.4477 3.15203H125.963C127.981 11.6561 132.08 17.4484 135.768 21.1522C137.695 23.087 139.507 24.4494 140.848 25.3332C141.519 25.7754 142.073 26.0985 142.467 26.3144C142.663 26.4224 142.82 26.5036 142.931 26.5595C142.987 26.5875 143.031 26.6092 143.063 26.6247L143.102 26.6433L143.115 26.6493L143.12 26.6514L143.121 26.6523C143.122 26.6526 143.123 26.653 143.77 25.2814L143.123 26.653C143.888 27.0066 144.798 26.6792 145.156 25.9217C145.513 25.1646 145.182 24.2645 144.418 23.9104L144.417 23.9099L144.402 23.9029C144.385 23.8947 144.357 23.8807 144.317 23.8607C144.237 23.8206 144.113 23.7565 143.95 23.6668C143.623 23.4875 143.14 23.2067 142.543 22.8135C141.35 22.0267 139.705 20.7931 137.947 19.0271C134.436 15.5021 130.457 9.84548 128.69 1.33374C128.544 0.629913 127.918 0.124756 127.192 0.124756H18.2185Z" fill="#18316F"/>
<path fill-rule="evenodd" clip-rule="evenodd" d="M38.8596 10.0805C34.9913 10.0805 31.8554 13.1843 31.8554 17.013C31.8554 20.8417 34.9913 23.9454 38.8596 23.9454C42.7279 23.9454 45.8638 20.8417 45.8638 17.013C45.8638 13.1843 42.7279 10.0805 38.8596 10.0805ZM28.7967 17.013C28.7967 11.5124 33.302 7.05324 38.8596 7.05324C44.4171 7.05324 48.9224 11.5124 48.9224 17.013C48.9224 22.5136 44.4171 26.9727 38.8596 26.9727C33.302 26.9727 28.7967 22.5136 28.7967 17.013Z" fill="#E75852"/>
<path fill-rule="evenodd" clip-rule="evenodd" d="M53.481 8.56688C53.481 7.73092 54.1657 7.05324 55.0104 7.05324C64.1438 7.05324 71.5575 14.3909 71.5575 23.4308C71.5575 24.2668 70.8728 24.9444 70.0282 24.9444C69.1835 24.9444 68.4989 24.2668 68.4989 23.4308C68.4989 16.0628 62.4546 10.0805 55.0104 10.0805C54.1657 10.0805 53.481 9.40284 53.481 8.56688Z" fill="#1F1E1B"/>
<path fill-rule="evenodd" clip-rule="evenodd" d="M86.4237 10.0805C82.5553 10.0805 79.4194 13.1843 79.4194 17.013C79.4194 20.8417 82.5553 23.9454 86.4237 23.9454C90.292 23.9454 93.4279 20.8417 93.4279 17.013C93.4279 13.1843 90.292 10.0805 86.4237 10.0805ZM76.3608 17.013C76.3608 11.5124 80.8661 7.05324 86.4237 7.05324C91.9812 7.05324 96.4865 11.5124 96.4865 17.013C96.4865 22.5136 91.9812 26.9727 86.4237 26.9727C80.8661 26.9727 76.3608 22.5136 76.3608 17.013Z" fill="#E75852"/>
<path fill-rule="evenodd" clip-rule="evenodd" d="M101.009 8.56688C101.009 7.73092 101.694 7.05324 102.538 7.05324C111.672 7.05324 119.086 14.3909 119.086 23.4308C119.086 24.2668 118.401 24.9444 117.556 24.9444C116.712 24.9444 116.027 24.2668 116.027 23.4308C116.027 16.0628 109.983 10.0805 102.538 10.0805C101.694 10.0805 101.009 9.40284 101.009 8.56688Z" fill="#1F1E1B"/>
<path fill-rule="evenodd" clip-rule="evenodd" d="M37.0171 33.257C35.9622 33.257 35.107 34.0587 35.107 35.0477C35.107 36.0367 35.9622 36.8384 37.0171 36.8384C38.072 36.8384 38.9271 36.0367 38.9271 35.0477C38.9271 34.0587 38.072 33.257 37.0171 33.257ZM34.0459 35.0477C34.0459 33.5093 35.3761 32.2622 37.0171 32.2622C38.658 32.2622 39.9883 33.5093 39.9883 35.0477C39.9883 36.5861 38.658 37.8332 37.0171 37.8332C35.3761 37.8332 34.0459 36.5861 34.0459 35.0477Z" fill="#231815"/>
<path fill-rule="evenodd" clip-rule="evenodd" d="M43.1627 33.0679C43.1627 32.7768 43.3945 32.5408 43.6805 32.5408H45.0063C45.2924 32.5408 45.5242 32.7768 45.5242 33.0679C45.5242 33.3591 45.2924 33.5951 45.0063 33.5951H44.1984V42.3199C44.1984 42.6111 43.9665 42.8471 43.6805 42.8471C43.3945 42.8471 43.1627 42.6111 43.1627 42.3199V33.0679Z" fill="#231815"/>
<path fill-rule="evenodd" clip-rule="evenodd" d="M37.1597 39.5039C37.4391 39.5039 37.6656 39.7208 37.6656 39.9883V41.8776H40.6755C40.9549 41.8776 41.1814 42.0945 41.1814 42.3621C41.1814 42.6296 40.9549 42.8465 40.6755 42.8465H37.1597C36.8804 42.8465 36.6539 42.6296 36.6539 42.3621V39.9883C36.6539 39.7208 36.8804 39.5039 37.1597 39.5039Z" fill="#231815"/>
<path fill-rule="evenodd" clip-rule="evenodd" d="M32.6927 42.4286C32.6927 42.1978 32.9367 42.0107 33.2377 42.0107H35.8264C36.1274 42.0107 36.3714 42.1978 36.3714 42.4286C36.3714 42.6593 36.1274 42.8464 35.8264 42.8464H33.2377C32.9367 42.8464 32.6927 42.6593 32.6927 42.4286Z" fill="#231815"/>
<path fill-rule="evenodd" clip-rule="evenodd" d="M84.3786 33.257C83.3237 33.257 82.4686 34.0587 82.4686 35.0477C82.4686 36.0367 83.3237 36.8384 84.3786 36.8384C85.4335 36.8384 86.2887 36.0367 86.2887 35.0477C86.2887 34.0587 85.4335 33.257 84.3786 33.257ZM81.4074 35.0477C81.4074 33.5093 82.7377 32.2622 84.3786 32.2622C86.0196 32.2622 87.3498 33.5093 87.3498 35.0477C87.3498 36.5861 86.0196 37.8332 84.3786 37.8332C82.7377 37.8332 81.4074 36.5861 81.4074 35.0477Z" fill="#231815"/>
<path fill-rule="evenodd" clip-rule="evenodd" d="M90.5242 33.0679C90.5242 32.7768 90.7561 32.5408 91.0421 32.5408H92.3679C92.6539 32.5408 92.8857 32.7768 92.8857 33.0679C92.8857 33.3591 92.6539 33.5951 92.3679 33.5951H91.5599V42.3199C91.5599 42.6111 91.3281 42.8471 91.0421 42.8471C90.7561 42.8471 90.5242 42.6111 90.5242 42.3199V33.0679Z" fill="#231815"/>
<path fill-rule="evenodd" clip-rule="evenodd" d="M84.5213 39.5039C84.8007 39.5039 85.0271 39.7208 85.0271 39.9883V41.8776H88.0371C88.3165 41.8776 88.5429 42.0945 88.5429 42.3621C88.5429 42.6296 88.3165 42.8465 88.0371 42.8465H84.5213C84.2419 42.8465 84.0154 42.6296 84.0154 42.3621V39.9883C84.0154 39.7208 84.2419 39.5039 84.5213 39.5039Z" fill="#231815"/>
<path fill-rule="evenodd" clip-rule="evenodd" d="M80.0543 42.4286C80.0543 42.1978 80.2983 42.0107 80.5993 42.0107H83.1879C83.4889 42.0107 83.7329 42.1978 83.7329 42.4286C83.7329 42.6593 83.4889 42.8464 83.1879 42.8464H80.5993C80.2983 42.8464 80.0543 42.6593 80.0543 42.4286Z" fill="#231815"/>
<path fill-rule="evenodd" clip-rule="evenodd" d="M58.4895 32.767C58.4895 32.4872 58.726 32.2605 59.0177 32.2605H67.8652C68.1569 32.2605 68.3934 32.4872 68.3934 32.767V34.5395C68.3934 34.8192 68.1569 35.046 67.8652 35.046C67.5735 35.046 67.337 34.8192 67.337 34.5395V33.2734H59.0177C58.726 33.2734 58.4895 33.0467 58.4895 32.767Z" fill="#231815"/>
<path fill-rule="evenodd" clip-rule="evenodd" d="M57.0761 36.1604C57.0761 35.8527 57.3098 35.6033 57.5982 35.6033H69.0048C69.2931 35.6033 69.5268 35.8527 69.5268 36.1604C69.5268 36.468 69.2931 36.7175 69.0048 36.7175H57.5982C57.3098 36.7175 57.0761 36.468 57.0761 36.1604Z" fill="#231815"/>
<path fill-rule="evenodd" clip-rule="evenodd" d="M58.4895 38.0686C58.4895 37.784 58.726 37.5532 59.0177 37.5532H67.8652C68.1569 37.5532 68.3934 37.784 68.3934 38.0686V40.3105C68.3934 40.5951 68.1569 40.8259 67.8652 40.8259H59.5459V42.372H67.8652C68.1569 42.372 68.3934 42.6027 68.3934 42.8874C68.3934 43.172 68.1569 43.4027 67.8652 43.4027H59.0177C58.726 43.4027 58.4895 43.172 58.4895 42.8874V40.3105C58.4895 40.0259 58.726 39.7951 59.0177 39.7951H67.337V38.584H59.0177C58.726 38.584 58.4895 38.3532 58.4895 38.0686Z" fill="#231815"/>
<path fill-rule="evenodd" clip-rule="evenodd" d="M104.74 32.767C104.74 32.4872 104.976 32.2605 105.268 32.2605H114.115C114.407 32.2605 114.643 32.4872 114.643 32.767V34.5395C114.643 34.8192 114.407 35.046 114.115 35.046C113.824 35.046 113.587 34.8192 113.587 34.5395V33.2734H105.268C104.976 33.2734 104.74 33.0467 104.74 32.767Z" fill="#231815"/>
<path fill-rule="evenodd" clip-rule="evenodd" d="M103.326 36.1604C103.326 35.8527 103.56 35.6033 103.848 35.6033H115.255C115.543 35.6033 115.777 35.8527 115.777 36.1604C115.777 36.468 115.543 36.7175 115.255 36.7175H103.848C103.56 36.7175 103.326 36.468 103.326 36.1604Z" fill="#231815"/>
<path fill-rule="evenodd" clip-rule="evenodd" d="M104.74 38.0686C104.74 37.784 104.976 37.5532 105.268 37.5532H114.115C114.407 37.5532 114.643 37.784 114.643 38.0686V40.3105C114.643 40.5951 114.407 40.8259 114.115 40.8259H105.796V42.372H114.115C114.407 42.372 114.643 42.6027 114.643 42.8874C114.643 43.172 114.407 43.4027 114.115 43.4027H105.268C104.976 43.4027 104.74 43.172 104.74 42.8874V40.3105C104.74 40.0259 104.976 39.7951 105.268 39.7951H113.587V38.584H105.268C104.976 38.584 104.74 38.3532 104.74 38.0686Z" fill="#231815"/>
</svg>
