<svg width="162" height="30" viewBox="0 0 162 30" fill="none" xmlns="http://www.w3.org/2000/svg">
<path d="M20.2041 0C19.394 0 18.6956 0.564464 18.5326 1.35092C16.5609 10.862 12.1214 17.1827 8.20441 21.1215C6.24198 23.0949 4.40732 24.4733 3.07529 25.3525C2.40964 25.7918 1.87085 26.1056 1.50623 26.306C1.32398 26.4061 1.18543 26.4779 1.09653 26.5226C1.05208 26.545 1.02006 26.5607 1.00122 26.5698L0.981446 26.5792C0.130021 26.9755 -0.237504 27.9803 0.160589 28.8256C0.559232 29.672 1.57466 30.0378 2.4286 29.6427L1.7068 28.1101C2.4286 29.6427 2.43148 29.6414 2.43237 29.641L2.43746 29.6386L2.45156 29.632L2.49525 29.6111C2.53115 29.5938 2.58051 29.5696 2.64254 29.5383C2.7666 29.4758 2.94147 29.3851 3.16102 29.2644C3.60001 29.0232 4.21836 28.6621 4.96688 28.168C6.46319 27.1804 8.48497 25.6581 10.6349 23.4961C14.7506 19.3575 19.3238 12.8851 21.5756 3.38269H140.424C142.676 12.8851 147.249 19.3575 151.365 23.4961C153.515 25.6581 155.537 27.1804 157.033 28.168C157.782 28.6621 158.4 29.0232 158.839 29.2644C159.059 29.3851 159.233 29.4758 159.357 29.5383C159.419 29.5696 159.469 29.5938 159.505 29.6111L159.548 29.632L159.563 29.6386L159.568 29.641L159.57 29.6419C159.571 29.6423 159.571 29.6427 160.293 28.1101L159.571 29.6427C160.425 30.0378 161.441 29.672 161.839 28.8256C162.238 27.9796 161.869 26.9738 161.016 26.5782L161.015 26.5776L160.999 26.5698C160.98 26.5607 160.948 26.545 160.903 26.5226C160.815 26.4779 160.676 26.4061 160.494 26.306C160.129 26.1056 159.59 25.7918 158.925 25.3525C157.593 24.4733 155.758 23.0949 153.796 21.1215C149.879 17.1827 145.439 10.862 143.467 1.35092C143.304 0.564464 142.606 0 141.796 0H20.2041Z" fill="#18316F"/>
<path fill-rule="evenodd" clip-rule="evenodd" d="M43.2352 11.1246C38.9189 11.1246 35.4199 14.5928 35.4199 18.871C35.4199 23.1491 38.9189 26.6173 43.2352 26.6173C47.5514 26.6173 51.0504 23.1491 51.0504 18.871C51.0504 14.5928 47.5514 11.1246 43.2352 11.1246ZM32.0071 18.871C32.0071 12.7246 37.0341 7.74191 43.2352 7.74191C49.4363 7.74191 54.4632 12.7246 54.4632 18.871C54.4632 25.0174 49.4363 30 43.2352 30C37.0341 30 32.0071 25.0174 32.0071 18.871Z" fill="#E75852"/>
<path fill-rule="evenodd" clip-rule="evenodd" d="M59.5497 9.43326C59.5497 8.49916 60.3137 7.74191 61.2561 7.74191C71.4471 7.74191 79.7192 15.9411 79.7192 26.0423C79.7192 26.9764 78.9552 27.7336 78.0128 27.7336C77.0704 27.7336 76.3064 26.9764 76.3064 26.0423C76.3064 17.8093 69.5623 11.1246 61.2561 11.1246C60.3137 11.1246 59.5497 10.3674 59.5497 9.43326Z" fill="#1F1E1B"/>
<path fill-rule="evenodd" clip-rule="evenodd" d="M96.3068 11.1246C91.9905 11.1246 88.4915 14.5928 88.4915 18.871C88.4915 23.1492 91.9905 26.6173 96.3068 26.6173C100.623 26.6173 104.122 23.1491 104.122 18.871C104.122 14.5928 100.623 11.1246 96.3068 11.1246ZM85.0787 18.871C85.0787 12.7246 90.1057 7.74191 96.3068 7.74191C102.508 7.74191 107.535 12.7246 107.535 18.871C107.535 25.0174 102.508 30 96.3068 30C90.1057 30 85.0787 25.0174 85.0787 18.871Z" fill="#E75852"/>
<path fill-rule="evenodd" clip-rule="evenodd" d="M112.581 9.43326C112.581 8.49916 113.345 7.74191 114.288 7.74191C124.479 7.74191 132.751 15.9411 132.751 26.0423C132.751 26.9764 131.987 27.7336 131.044 27.7336C130.102 27.7336 129.338 26.9764 129.338 26.0423C129.338 17.8093 122.594 11.1246 114.288 11.1246C113.345 11.1246 112.581 10.3674 112.581 9.43326Z" fill="#1F1E1B"/>
</svg>
