<svg width="162" height="163" viewBox="0 0 162 163" fill="none" xmlns="http://www.w3.org/2000/svg">
<g clip-path="url(#clip0_1193_1042)">
<line x1="40.5" y1="-15.3105" x2="40.5" y2="138.689" stroke="#D3C2A5"/>
<line x1="40" y1="138.189" x2="240" y2="138.189" stroke="#D3C2A5"/>
<line x1="40.7263" y1="137.994" x2="-1.79548" y2="163.674" stroke="#D3C2A5"/>
<path d="M59.2933 53.64H60.8533C62.1733 54.24 63.3733 55.08 65.0533 55.08C66.2533 55.08 66.6133 54.36 67.5733 54.72L70.4533 55.68H78.9733L85.9333 54.84L88.3333 54C89.1733 53.88 92.2933 53.04 92.7733 53.28C93.9733 53.76 94.6933 53.52 96.1333 53.64C98.2933 53.88 98.8933 52.8 101.053 52.68C102.253 52.68 103.453 52.32 104.653 52.68C106.093 53.16 107.173 54.48 108.373 55.56C109.213 56.4 109.813 57.6 110.173 58.2C110.653 59.16 110.173 70.92 110.173 72C110.173 73.08 110.173 77.4 109.573 78.36L108.733 81.36V83.52L108.013 88.32L108.733 89.28V91.8C108.733 93 107.173 95.04 107.053 96.48L107.533 99.24L107.413 104.52V107.52C106.333 109.56 103.933 110.76 102.253 111.12C99.4933 111.6 98.0533 110.52 97.3333 106.56V103.68C97.3333 103.68 96.4933 99.24 97.3333 97.56C97.3333 96.96 97.8133 95.16 97.9333 93.24C97.9333 92.64 97.6933 91.44 97.6933 90.84C97.8133 89.4 97.9333 88.32 97.9333 87.96C97.9333 87.24 96.4933 81.36 96.4933 81.36C96.7333 80.4 97.3333 79.32 97.3333 78.36C97.3333 77.4 97.8133 72.24 96.9733 71.88C96.7333 71.64 96.7333 62.52 96.0133 62.4C94.2133 62.04 93.4933 63.48 92.5333 63.48C91.2133 63.48 90.0133 63.24 86.8933 64.32L75.0133 65.88H58.3333C55.0933 64.8 52.9333 63.24 51.6133 61.2V56.64C52.2133 54.72 53.0533 51.84 56.4133 52.8L59.2933 53.64Z" fill="#C0AA87"/>
</g>
<rect x="0.5" y="1.37305" width="161" height="161" stroke="#D3C2A5"/>
<defs>
<clipPath id="clip0_1193_1042">
<rect y="0.873047" width="162" height="162" fill="white"/>
</clipPath>
</defs>
</svg>
