<svg width="162" height="163" viewBox="0 0 162 163" fill="none" xmlns="http://www.w3.org/2000/svg">
<g clip-path="url(#clip0_1193_1059)">
<line x1="40.5" y1="-15.3105" x2="40.5" y2="138.689" stroke="#D3C2A5"/>
<line x1="40" y1="138.189" x2="240" y2="138.189" stroke="#D3C2A5"/>
<line x1="40.7263" y1="137.994" x2="-1.79548" y2="163.674" stroke="#D3C2A5"/>
<path d="M52.2197 53.6334L56.5397 53.8734C56.5397 53.8734 58.5797 55.7934 59.1797 56.3934C59.6597 56.3934 60.1397 57.3534 60.6197 57.4734C61.0997 57.4734 63.2597 59.1534 64.3397 59.1534C64.9397 59.9934 64.8197 61.5534 64.6997 63.1134C65.1797 64.3134 65.5397 65.2734 65.5397 65.8734C65.5397 65.9934 66.2597 67.5534 66.4997 69.3534L66.2597 72.4734C66.4997 74.7534 67.0997 76.7934 67.3397 77.5134C67.5797 78.4734 67.3397 80.7534 67.3397 82.9134L67.9397 86.8734C67.3397 93.2334 69.7397 93.9534 69.6197 94.3134C69.6197 95.2734 71.2997 97.5534 71.2997 97.5534L74.2997 97.9134C77.0597 98.0334 78.2597 97.7934 78.2597 97.7934L80.4197 98.0334L82.4597 97.1934C84.1397 96.7134 87.1397 96.5934 87.6197 96.5934C88.2197 95.9934 90.3797 95.7534 90.9797 95.7534C92.0597 95.7534 96.6197 94.9134 96.6197 94.9134L99.1397 94.6734L103.94 93.9534C103.94 93.9534 106.58 94.1934 107.66 93.8334C108.74 93.9534 111.5 94.5534 111.5 94.5534C111.5 94.5534 114.02 93.9534 114.74 95.9934C114.98 96.8334 114.62 97.0734 114.5 98.6334C114.26 99.7134 114.86 100.313 114.26 100.793C114.26 101.393 113.06 101.753 111.98 102.113C111.5 102.113 108.26 102.473 108.26 102.473L105.5 102.833C103.34 103.793 103.34 103.793 102.74 103.673C102.26 103.673 101.06 104.153 101.06 104.153L95.2997 106.073L90.1397 107.153C90.1397 107.153 83.8997 108.473 82.8197 108.833C82.2197 109.433 80.0597 109.313 79.4597 109.193C78.3797 109.673 75.8597 109.073 75.8597 109.073C75.8597 109.073 71.4197 109.073 68.8997 110.033C66.1397 111.113 63.0197 107.513 63.1397 106.313L59.7797 104.153C59.2997 103.193 60.0197 100.913 60.0197 100.913C60.0197 100.913 59.1797 98.2734 59.1797 97.1934C59.1797 96.9534 58.4597 96.1134 58.4597 95.0334C58.3397 93.7134 57.0197 92.5134 56.8997 90.8334L56.5397 86.1534C56.5397 86.0334 56.0597 85.1934 55.9397 84.2334C55.9397 83.6334 56.2997 82.9134 56.2997 82.0734C56.1797 80.0334 55.4597 77.7534 55.2197 76.9134C54.7397 76.3134 54.8597 74.1534 54.7397 71.9934L54.2597 70.5534C54.1397 68.5134 54.6197 66.8334 54.6197 66.8334L53.0597 64.5534L47.1797 57.5934L47.2997 55.6734L49.5797 53.5134L52.2197 53.6334Z" fill="#C0AA87"/>
</g>
<rect x="0.5" y="1.37305" width="161" height="161" stroke="#D3C2A5"/>
<defs>
<clipPath id="clip0_1193_1059">
<rect y="0.873047" width="162" height="162" fill="white"/>
</clipPath>
</defs>
</svg>
