<svg width="163" height="163" viewBox="0 0 163 163" fill="none" xmlns="http://www.w3.org/2000/svg">
<g clip-path="url(#clip0_1193_1101)">
<line x1="41.1187" y1="-15.6836" x2="41.1187" y2="138.316" stroke="#D3C2A5"/>
<line x1="40.6187" y1="137.816" x2="240.619" y2="137.816" stroke="#D3C2A5"/>
<line x1="41.3449" y1="137.621" x2="-1.17682" y2="163.301" stroke="#D3C2A5"/>
<path d="M66.5914 57.1333L69.7114 57.4933H73.4314C73.4314 57.4933 74.3914 57.4933 76.0714 57.1333C77.2714 56.6533 78.9514 56.2933 78.9514 56.2933L83.0314 55.9333H90.2314C92.5114 55.9333 92.5114 55.6933 93.7114 55.3333C94.9114 55.3333 95.6314 55.0933 96.9514 54.3733C98.3914 53.8933 98.1514 54.0133 98.9914 53.1733C100.191 51.8533 100.551 53.1733 102.711 53.1733H105.471C107.151 53.1733 107.751 54.0133 108.231 54.0133C108.951 54.0133 110.151 54.7333 110.151 54.7333C110.151 54.7333 110.871 55.9333 110.871 56.6533C110.871 57.1333 110.511 58.6933 109.791 59.6533C109.551 60.6133 109.791 59.6533 108.951 60.6133C107.751 61.2133 107.751 61.2133 106.191 62.1733C104.631 63.1333 100.551 64.3333 97.4314 64.3333H87.4714C84.9514 64.3333 85.6714 64.9333 84.5914 65.2933C83.7514 65.5333 80.5114 65.2933 80.0314 65.2933C79.3114 65.2933 76.9114 66.0133 76.3114 66.0133C75.7114 66.0133 74.1514 66.4933 73.4314 66.7333C72.4714 66.7333 72.8314 68.0533 72.8314 68.0533C72.8314 68.0533 73.7914 69.9733 73.7914 70.5733V73.0933C73.7914 73.6933 73.4314 74.6533 73.4314 76.6933C73.3114 76.9333 73.4314 77.1733 73.4314 77.4133V80.2933C73.4314 80.7733 73.7914 81.7333 73.7914 81.7333V84.0133C73.7914 84.6133 73.4314 85.9333 73.4314 87.9733V93.0133C73.4314 93.6133 74.1514 94.9333 74.6314 97.5733H76.5514L77.8714 97.2133C78.8314 96.7333 80.8714 97.2133 80.8714 97.2133H84.1114C85.9114 97.2133 86.8714 96.9733 87.4714 96.3733C87.8314 95.7733 89.2714 96.0133 89.9914 95.7733C90.5914 95.5333 91.4314 95.7733 92.9914 95.5333H97.0714C98.1514 95.1733 100.911 94.9333 101.391 94.9333C102.111 94.9333 103.671 94.3333 104.991 94.3333H108.111L110.511 95.5333C113.031 96.3733 112.311 96.7333 112.071 97.2133C111.711 97.9333 112.671 98.2933 112.071 99.8533C111.351 101.053 112.311 101.653 112.071 102.733C111.711 103.573 112.071 102.733 110.871 103.213C109.551 104.173 108.231 103.933 108.231 103.933H105.231C105.231 103.933 99.5914 104.533 98.3914 104.533H94.6714C93.2314 104.533 92.6314 105.013 92.0314 105.253C91.9114 105.253 88.1914 105.613 87.2314 105.973C86.2714 106.333 81.2314 106.693 81.2314 106.693L80.0314 107.173C78.8314 107.893 78.9514 107.893 78.5914 108.493C78.2314 109.213 75.3514 110.413 75.3514 110.413H66.5914L63.8314 109.453C63.8314 109.453 62.1514 106.693 62.0314 105.493C61.3114 104.173 61.6714 103.213 61.6714 101.653C61.6714 100.093 62.0314 97.9333 62.0314 96.7333C62.0314 95.5333 62.1514 94.9333 62.5114 94.3333C63.2314 93.6133 63.4714 91.6933 63.4714 91.0933V87.6133C63.4714 87.6133 62.0314 80.7733 62.0314 78.3733C62.0314 75.9733 61.3114 74.4133 60.9514 72.7333C60.5914 71.1733 60.3514 69.0133 60.3514 69.0133C60.3514 69.0133 58.9114 67.8133 58.9114 67.4533C58.5514 66.7333 55.4314 66.4933 55.4314 66.4933C55.4314 66.4933 51.9514 64.3333 51.7114 63.7333C51.7114 63.1333 50.7514 61.5733 50.9914 60.2533C50.9914 59.0533 50.7514 57.1333 50.9914 57.1333C50.9914 56.7733 55.7914 53.5333 55.7914 53.5333C55.7914 53.5333 58.9114 52.8133 59.3914 53.5333C59.9914 54.0133 62.0314 53.5333 62.0314 53.5333C62.0314 53.5333 64.0714 55.3333 64.7914 55.9333C65.3914 56.2933 66.1114 56.6533 66.5914 57.1333Z" fill="#C0AA87"/>
</g>
<rect x="1.11865" y="1" width="161" height="161" stroke="#D3C2A5"/>
<defs>
<clipPath id="clip0_1193_1101">
<rect x="0.618652" y="0.5" width="162" height="162" fill="white"/>
</clipPath>
</defs>
</svg>
