<svg width="163" height="163" viewBox="0 0 163 163" fill="none" xmlns="http://www.w3.org/2000/svg">
<g clip-path="url(#clip0_1193_1090)">
<line x1="41.1187" y1="-15.6836" x2="41.1187" y2="138.316" stroke="#D3C2A5"/>
<line x1="40.6187" y1="137.816" x2="240.619" y2="137.816" stroke="#D3C2A5"/>
<line x1="41.3449" y1="137.621" x2="-1.17682" y2="163.301" stroke="#D3C2A5"/>
<path d="M81.4622 51.6888H82.9022C83.0222 51.4488 86.9822 51.8088 88.3022 54.3288C88.3022 54.3288 88.6622 55.8888 89.7422 56.7288C90.4622 57.3288 91.9022 59.2488 91.9022 59.2488C91.9022 59.2488 93.2222 60.2088 93.2222 61.0488C93.8222 61.7688 93.8222 63.2088 93.8222 64.5288V72.4488C93.8222 74.2488 91.7822 75.5688 91.3022 76.4088C90.9422 77.7288 91.3022 76.4088 90.5822 78.5688L92.2622 80.1288C92.2622 80.1288 92.1422 79.2888 93.9422 80.3688C95.6222 80.9688 95.7422 82.1688 95.7422 82.1688L96.8222 82.7688C96.8222 82.7688 97.1822 82.4088 99.7022 83.4888L103.662 86.7288C105.102 87.3288 106.182 87.4488 106.782 87.9288C107.502 88.2888 110.142 90.9288 110.142 90.9288L111.222 91.0488C112.182 91.4088 112.422 92.2488 112.422 92.2488L113.862 93.4488L114.462 94.4088L115.782 97.6488C115.782 97.6488 116.022 99.4488 115.542 99.9288C115.062 101.249 115.542 101.729 115.662 102.449C115.662 103.529 114.822 104.849 114.462 106.169C114.342 106.649 114.222 107.009 113.022 107.369C111.462 108.449 111.102 107.489 110.262 107.489C108.702 106.769 107.862 105.929 107.142 104.969C106.782 104.129 104.622 103.289 104.262 102.089C103.062 101.249 99.8222 98.1288 99.8222 98.1288C99.8222 98.1288 99.4622 98.3688 95.6222 95.3688C94.9022 94.5288 93.9422 93.8088 92.8622 93.2088C91.5422 92.2488 90.4622 92.1288 89.7422 91.4088C87.9422 89.8488 86.9822 87.2088 86.1422 86.7288C85.1822 85.8888 83.9822 86.1288 82.5422 86.6088L80.6222 88.1688C80.2622 89.4888 79.9022 90.9288 78.8222 92.2488L77.5022 93.6888L75.7022 95.1288L74.9822 95.3688C74.1422 95.3688 73.5422 96.4488 73.5422 96.4488L72.1022 98.2488C72.1022 98.2488 70.5422 98.7288 69.9422 99.8088C69.7022 100.889 69.7022 101.609 69.7022 101.609C68.5022 103.409 68.2622 104.249 67.1822 105.449C66.5822 105.809 65.8622 106.769 65.2622 107.009L64.5422 107.369C63.8222 108.929 57.2222 110.969 56.2622 110.969C55.5422 110.969 53.6222 111.689 51.3422 111.209C47.0222 110.009 47.7422 111.089 47.5022 109.889C47.2622 108.809 47.5022 108.329 47.5022 108.329L49.3022 104.849C49.3022 104.849 51.2222 103.889 52.4222 102.569C53.0222 101.129 56.5022 99.8088 56.9822 98.9688C57.3422 98.6088 59.2622 96.9288 59.2622 96.9288L60.1022 96.2088C61.1822 95.2488 62.0222 95.1288 62.2622 93.9288C62.7422 92.4888 63.8222 91.5288 64.7822 90.6888C64.7822 90.6888 66.8222 88.7688 68.6222 87.2088C70.4222 85.5288 70.0622 84.6888 70.0622 84.6888L71.9822 81.5688L74.1422 78.6888L75.9422 77.2488L78.2222 75.0888V73.5288C78.2222 73.5288 79.5422 69.9288 79.9022 68.7288L80.6222 66.2088C80.7422 65.8488 81.1022 64.7688 81.4622 63.2088C82.0622 61.7688 78.8222 60.5688 78.8222 60.5688C77.8622 59.9688 77.0222 59.1288 77.0222 58.8888C77.0222 57.3288 76.6622 55.1688 78.1022 53.8488L78.8222 53.3688C79.6622 52.8888 81.4622 51.6888 81.4622 51.6888Z" fill="#C0AA87"/>
</g>
<rect x="1.11865" y="1" width="161" height="161" stroke="#D3C2A5"/>
<defs>
<clipPath id="clip0_1193_1090">
<rect x="0.618652" y="0.5" width="162" height="162" fill="white"/>
</clipPath>
</defs>
</svg>
