<svg width="163" height="163" viewBox="0 0 163 163" fill="none" xmlns="http://www.w3.org/2000/svg">
<g clip-path="url(#clip0_1193_1106)">
<line x1="41.1187" y1="-15.6836" x2="41.1187" y2="138.316" stroke="#D3C2A5"/>
<line x1="40.6187" y1="137.816" x2="240.619" y2="137.816" stroke="#D3C2A5"/>
<line x1="41.3449" y1="137.621" x2="-1.17682" y2="163.301" stroke="#D3C2A5"/>
<path d="M108.325 71.9134C109.645 75.3934 108.325 74.4334 108.325 75.3934V85.7134C108.325 86.7934 106.165 89.1934 105.685 90.1534C104.845 91.2334 105.685 93.6334 105.685 93.6334L104.845 95.7934C103.765 98.0734 102.205 98.0734 102.205 98.0734L100.405 100.233C100.405 100.233 95.8452 105.033 93.9252 105.513C92.3652 106.113 91.4052 107.073 91.4052 107.073L88.8852 108.033L84.6852 109.593C84.6852 109.593 82.4052 110.073 80.2452 109.593C78.9252 108.993 77.3652 110.073 77.3652 109.593C77.3652 108.993 71.8452 109.113 71.8452 109.113L69.9252 107.073H67.5252L65.2452 105.753C65.2452 105.753 63.2052 103.593 62.2452 102.633C61.7652 101.553 60.5652 100.353 59.1252 97.3534C57.0852 94.2334 57.5652 94.2334 57.5652 94.2334C57.5652 94.2334 56.8452 90.7534 56.3652 89.6734C56.3652 88.8334 54.3252 86.3134 54.3252 86.3134V80.9134C54.3252 79.8334 56.3652 76.9534 56.3652 76.9534V71.9134C56.8452 70.4734 58.7652 67.4734 58.7652 67.4734L62.2452 63.5134L63.2052 61.2334L65.2452 59.5534L67.2852 57.1534L71.2452 54.1534H77.1252L82.6452 53.1934C82.6452 53.1934 84.4452 54.1534 86.9652 54.1534C88.8852 54.1534 88.4052 55.7134 89.4852 56.1934C90.4452 56.1934 93.4452 56.6734 93.4452 56.6734L97.4052 59.0734L98.8452 61.1134L103.765 64.5934L106.165 69.0334L108.325 71.9134ZM97.4052 82.3534C97.8852 81.3934 96.3252 81.8734 97.4052 80.4334C97.8852 78.8734 97.4052 77.9134 97.4052 76.9534C97.4052 76.3534 95.8452 74.4334 95.8452 74.4334C95.8452 74.4334 95.8452 74.0734 94.8852 72.3934L93.4452 70.9534L91.4052 68.4334L88.8852 66.5134L85.6452 65.7934H79.0452L78.0852 66.2734L75.6852 67.3534C75.6852 67.3534 74.4852 66.9934 72.6852 68.9134C71.1252 70.4734 69.5652 71.6734 68.4852 73.4734C67.0452 75.2734 66.4452 75.7534 66.4452 76.8334V88.7134C66.4452 88.7134 66.6852 90.1534 67.6452 90.7534C69.2052 91.2334 70.1652 92.7934 70.6452 93.6334C71.2452 94.5934 74.7252 96.2734 74.7252 96.2734C74.7252 96.2734 75.2052 97.1134 77.1252 97.5934C79.0452 98.0734 78.0852 96.2734 80.0052 97.5934C82.1652 99.1534 88.4052 97.5934 88.4052 97.5934L90.9252 96.2734C91.4052 95.3134 93.4452 92.7934 93.9252 92.3134L94.8852 91.8334C94.8852 91.8334 96.9252 91.2334 96.9252 89.1934C97.4052 87.2734 96.9252 84.8734 96.9252 84.8734C96.9252 84.8734 96.3252 83.3134 97.4052 82.3534Z" fill="#C0AA87"/>
</g>
<rect x="1.11865" y="1" width="161" height="161" stroke="#D3C2A5"/>
<defs>
<clipPath id="clip0_1193_1106">
<rect x="0.618652" y="0.5" width="162" height="162" fill="white"/>
</clipPath>
</defs>
</svg>
