<svg width="163" height="163" viewBox="0 0 163 163" fill="none" xmlns="http://www.w3.org/2000/svg">
<g clip-path="url(#clip0_1193_1095)">
<line x1="41.1187" y1="-15.6836" x2="41.1187" y2="138.316" stroke="#D3C2A5"/>
<line x1="40.6187" y1="137.816" x2="240.619" y2="137.816" stroke="#D3C2A5"/>
<line x1="41.3449" y1="137.621" x2="-1.17682" y2="163.301" stroke="#D3C2A5"/>
<path d="M66.2531 55.7001L69.6131 56.1801C69.6131 56.1801 74.5331 55.9401 75.1331 55.5801C75.8531 55.2201 78.3731 55.1001 78.3731 55.1001L81.8531 54.1401C81.8531 54.1401 87.4931 54.1401 89.0531 54.0201L91.6931 51.9801L93.9731 51.8601C93.9731 51.8601 98.8931 52.1001 100.453 52.8201C102.253 53.4201 102.253 53.6601 102.253 53.6601L102.733 55.7001L102.973 59.0601C102.973 59.0601 102.253 60.1401 101.413 61.4601L100.453 63.0201C99.0131 64.5801 98.7731 64.8201 98.7731 64.8201C98.8931 66.2601 97.4531 68.3001 95.0531 70.7001C93.7331 72.2601 90.8531 73.3401 90.8531 75.7401C90.8531 76.8201 90.9731 77.9001 91.6931 78.9801C91.6931 78.9801 94.5731 80.9001 96.4931 82.4601C98.2931 83.7801 98.2931 83.7801 99.1331 84.6201C99.9731 86.0601 100.333 86.0601 101.413 87.1401C102.373 87.9801 102.373 87.6201 103.213 87.9801C103.933 88.7001 105.493 89.3001 105.493 89.3001L108.133 91.5801L110.293 92.9001L111.133 94.5801L113.053 96.1401V97.8201C113.053 97.8201 113.653 99.7401 112.933 101.42C112.813 103.34 112.933 102.14 111.493 104.66L110.413 106.94L109.213 107.66C107.173 108.5 105.133 107.3 105.133 107.3L104.533 106.7C103.693 105.86 102.853 105.26 102.853 105.26L100.693 102.38L99.1331 99.2601C99.1331 99.2601 96.9731 95.6601 96.6131 94.8201C96.3731 93.7401 95.0531 93.3801 93.9731 92.4201C93.2531 91.1001 92.8931 91.2201 91.9331 90.5001C90.9731 89.5401 89.8931 89.4201 89.8931 89.4201L87.2531 87.6201C85.4531 86.3001 83.6531 87.7401 81.9731 89.1801L77.1731 93.9801C77.1731 93.9801 75.0131 96.0201 75.0131 96.9801C75.0131 97.7001 74.2931 98.7801 73.9331 99.5001C73.4531 100.22 71.4131 100.82 71.1731 101.66C70.8131 102.02 69.4931 102.74 69.4931 102.74L64.8131 107.42C64.8131 107.42 62.2931 108.98 61.9331 109.58C61.9331 110.3 56.7731 111.02 56.1731 111.14H53.5331C53.5331 111.14 51.6131 109.82 50.4131 108.74L50.0531 107.78C49.6931 106.82 50.2931 106.82 51.6131 105.26C53.0531 103.7 53.0531 103.34 53.0531 103.34C53.0531 103.34 56.2931 101.78 57.0131 101.3C57.7331 100.82 58.4531 100.46 59.7731 98.0601C60.8531 95.3001 61.2131 96.1401 61.2131 96.1401C61.2131 96.1401 62.6531 95.7801 63.3731 94.3401C64.0931 93.1401 64.3331 93.8601 65.0531 92.4201C65.5331 90.9801 65.8931 91.3401 66.9731 89.7801C67.9331 88.7001 69.0131 88.7001 69.3731 88.1001C69.8531 87.2601 72.2531 85.8201 72.4931 85.5801C73.3331 84.7401 73.9331 84.0201 73.9331 84.0201C73.9331 84.0201 77.0531 79.7001 77.6531 78.7401C78.1331 77.4201 80.4131 75.2601 80.4131 75.2601L81.1331 74.5401C81.4931 73.4601 82.2131 72.7401 82.2131 72.7401L83.7731 71.5401L85.4531 69.1401C85.4531 69.1401 87.1331 68.5401 87.7331 67.4601C88.8131 65.9001 88.8131 65.1801 88.6931 64.5801C88.9331 63.5001 88.6931 63.1401 88.6931 63.1401L85.3331 63.3801L82.0931 64.3401L79.5731 64.5801L75.4931 64.8201H69.3731C68.1731 65.5401 66.8531 65.3001 65.7731 65.3001C64.8131 65.3001 63.8531 65.5401 62.6531 65.5401C61.3331 65.5401 59.4131 65.7801 58.6931 64.7001C58.0931 63.7401 55.9331 62.0601 55.8131 62.0601C55.8131 61.3401 54.2531 58.9401 54.2531 58.9401C54.0131 57.6201 55.3331 55.4601 59.4131 55.3401L61.6931 55.1001L64.5731 55.8201L66.2531 55.7001Z" fill="#C0AA87"/>
</g>
<rect x="1.11865" y="1" width="161" height="161" stroke="#D3C2A5"/>
<defs>
<clipPath id="clip0_1193_1095">
<rect x="0.618652" y="0.5" width="162" height="162" fill="white"/>
</clipPath>
</defs>
</svg>
