<svg width="162" height="163" viewBox="0 0 162 163" fill="none" xmlns="http://www.w3.org/2000/svg">
<g clip-path="url(#clip0_1193_1037)">
<line x1="40.5" y1="-15.3105" x2="40.5" y2="138.689" stroke="#D3C2A5"/>
<line x1="40" y1="138.189" x2="240" y2="138.189" stroke="#D3C2A5"/>
<line x1="40.7263" y1="137.994" x2="-1.79548" y2="163.674" stroke="#D3C2A5"/>
<path d="M100.949 98.1465V100.666C100.949 101.866 100.949 101.866 100.109 103.786L98.5491 107.386L96.2691 108.706L91.7091 111.106L85.5891 112.666C84.6291 113.146 84.2691 112.666 84.2691 112.666H78.2691C78.2691 112.666 72.9891 111.346 70.1091 109.786H68.7891L66.8691 108.706L62.4291 105.466L61.3491 103.786V93.2265C61.5891 92.9865 62.5491 89.9865 62.5491 89.9865C62.5491 89.9865 63.9891 88.5465 64.9491 86.9865C66.0291 85.4265 66.5091 85.4265 66.5091 85.4265L69.0291 83.2665H70.1091L74.5491 80.9865L76.3491 80.3865H80.4291C80.4291 80.3865 81.3891 79.5465 84.2691 80.3865H85.8291C86.6691 79.9065 87.8691 80.9865 87.8691 80.9865L91.7091 81.9465L92.9091 83.2665L94.2291 83.7465C95.7891 84.1065 96.0291 85.0665 96.0291 85.0665C96.0291 85.0665 97.2291 86.1465 97.4691 86.9865C98.1891 87.7065 98.9091 89.2665 98.9091 89.2665C98.9091 89.2665 99.1491 90.9465 99.1491 91.0665C99.1491 91.9065 100.109 93.2265 100.109 93.2265L100.349 94.6665C100.709 96.2265 100.349 94.6665 100.949 98.1465ZM80.1891 68.0265L83.7891 67.3065L88.5891 65.9865H90.5091L91.5891 65.6265C91.5891 65.6265 94.2291 64.3065 95.0691 63.9465C96.0291 63.3465 95.0691 63.9465 96.3891 62.9865C98.1891 62.2665 97.9491 62.9865 100.709 62.9865H107.189L109.349 63.7065C111.989 64.3065 111.029 65.3865 111.989 66.7065L112.829 67.6665V69.7065C112.589 70.4265 111.989 71.6265 111.989 71.6265L110.309 72.3465L109.349 72.9465H107.429C106.469 72.9465 102.029 73.3065 102.029 73.3065H99.1491C97.7091 73.3065 96.0291 73.7865 94.9491 73.7865C93.9891 73.7865 93.6291 74.1465 93.6291 74.1465C93.6291 74.1465 89.9091 75.4665 89.3091 75.4665H86.3091C85.2291 75.4665 84.6291 76.6665 82.9491 76.6665H81.7491L71.4291 78.4665L68.1891 77.9865C68.1891 77.9865 66.2691 78.7065 65.6691 77.9865C64.9491 77.6265 59.0691 77.9865 59.0691 77.9865H57.0291L53.3091 76.6665L49.2291 74.6265C49.5891 73.6665 48.9891 73.0665 49.2291 72.1065C49.5891 70.5465 49.2291 69.9465 49.2291 69.9465C49.4691 67.7865 51.8691 66.2265 57.2691 65.9865H60.0291C61.1091 66.2265 63.2691 67.0665 63.8691 67.6665C64.5891 68.2665 64.5891 67.6665 65.3091 67.6665C66.0291 68.0265 67.8291 67.6665 67.8291 67.6665H71.4291C71.4291 67.6665 75.0291 68.0265 75.6291 68.0265H77.9091C79.2291 67.6665 80.1891 68.0265 80.1891 68.0265ZM90.3891 93.2265C90.3891 93.2265 90.6291 92.5065 90.3891 92.1465C89.7891 91.4265 89.4291 90.9465 89.0691 90.3465L88.8291 89.5065C85.8291 87.7065 85.2291 88.5465 84.6291 88.5465C84.2691 88.5465 81.3891 87.7065 81.3891 87.7065L79.7091 88.1865C79.7091 88.1865 77.9091 88.3065 77.3091 88.3065L75.2691 89.9865C75.2691 89.9865 73.4691 90.9465 73.4691 91.0665V93.2265C73.4691 93.2265 74.4291 94.6665 73.4691 95.3865C73.3491 96.2265 73.3491 96.8265 73.4691 98.1465C74.4291 98.7465 74.9091 100.666 74.9091 100.666L76.3491 102.226L80.1891 103.426H81.9891C82.5891 103.426 84.2691 104.386 84.9891 103.426C87.0291 102.946 88.7091 101.626 89.4291 98.7465C90.0291 96.4665 90.3891 95.3865 90.3891 95.3865V93.2265ZM70.3491 53.5065C70.8291 51.9465 71.7891 50.8665 73.5891 50.8665C73.5891 50.8665 77.3091 52.0665 77.9091 52.0665C78.2691 52.4265 78.5091 52.4265 78.5091 52.4265C78.5091 52.4265 80.4291 52.0665 81.3891 52.4265C81.9891 52.4265 84.0291 52.6665 84.6291 53.5065C85.3491 53.7465 86.3091 53.0265 86.5491 53.5065C87.2691 53.5065 87.5091 53.7465 88.8291 55.3065C89.6691 56.2665 90.5091 58.0665 90.5091 58.0665V60.8265L89.1891 62.6265L87.5091 63.3465H83.4291L80.7891 62.9865C77.9091 62.6265 77.0691 62.6265 74.6691 61.9065C72.2691 61.3065 71.7891 60.1065 71.7891 60.1065L70.3491 58.4265C70.3491 58.4265 69.7491 57.4665 70.3491 55.7865C71.3091 54.8265 69.9891 54.8265 70.3491 53.5065Z" fill="#C0AA87"/>
</g>
<rect x="0.5" y="1.37305" width="161" height="161" stroke="#D3C2A5"/>
<defs>
<clipPath id="clip0_1193_1037">
<rect y="0.873047" width="162" height="162" fill="white"/>
</clipPath>
</defs>
</svg>
